<mxfile host="app.diagrams.net" modified="2024-07-09T00:40:29.548Z" agent="Mozilla/5.0 (Windows NT 10.0; Win64; x64) AppleWebKit/537.36 (KHTML, like Gecko) Chrome/126.0.0.0 Safari/537.36 Edg/126.0.0.0" etag="sQFQV2RtSBYbwt-6Ik38" version="24.6.3" type="device">
  <diagram name="Página-1" id="N54WT3AZq-8HZotWZhi-">
    <mxGraphModel dx="1373" dy="285" grid="1" gridSize="10" guides="1" tooltips="1" connect="1" arrows="1" fold="1" page="1" pageScale="1" pageWidth="827" pageHeight="1169" math="0" shadow="0">
      <root>
        <mxCell id="0" />
        <mxCell id="1" parent="0" />
        <mxCell id="2" value="Layer 3" style="whiteSpace=wrap;strokeWidth=2;verticalAlign=top;" parent="1" vertex="1">
          <mxGeometry x="-0.5" y="250" width="255" height="84" as="geometry" />
        </mxCell>
        <mxCell id="MCOasEj0JGhouQs_hzkm-20" style="edgeStyle=orthogonalEdgeStyle;rounded=0;orthogonalLoop=1;jettySize=auto;html=1;" edge="1" parent="1" source="3" target="MCOasEj0JGhouQs_hzkm-19">
          <mxGeometry relative="1" as="geometry" />
        </mxCell>
        <mxCell id="3" value="Block E" style="whiteSpace=wrap;strokeWidth=2;" parent="1" vertex="1">
          <mxGeometry x="94" y="293" width="67" height="34" as="geometry" />
        </mxCell>
        <mxCell id="5" value="Layer 2" style="whiteSpace=wrap;strokeWidth=2;verticalAlign=top;" parent="1" vertex="1">
          <mxGeometry x="-22.5" y="134" width="300" height="84" as="geometry" />
        </mxCell>
        <mxCell id="MCOasEj0JGhouQs_hzkm-18" style="edgeStyle=orthogonalEdgeStyle;rounded=0;orthogonalLoop=1;jettySize=auto;html=1;" edge="1" parent="1" source="MCOasEj0JGhouQs_hzkm-22" target="MCOasEj0JGhouQs_hzkm-17">
          <mxGeometry relative="1" as="geometry" />
        </mxCell>
        <mxCell id="6" value="Block C1" style="whiteSpace=wrap;strokeWidth=2;" parent="1" vertex="1">
          <mxGeometry x="-0.5" y="161" width="68" height="34" as="geometry" />
        </mxCell>
        <mxCell id="8" value="Layer 1" style="whiteSpace=wrap;strokeWidth=2;verticalAlign=top;" parent="1" vertex="1">
          <mxGeometry y="10" width="255" height="84" as="geometry" />
        </mxCell>
        <mxCell id="MCOasEj0JGhouQs_hzkm-15" style="edgeStyle=orthogonalEdgeStyle;rounded=0;orthogonalLoop=1;jettySize=auto;html=1;" edge="1" parent="1" source="9">
          <mxGeometry relative="1" as="geometry">
            <mxPoint x="320" y="67.00000000000006" as="targetPoint" />
          </mxGeometry>
        </mxCell>
        <mxCell id="MCOasEj0JGhouQs_hzkm-21" style="edgeStyle=orthogonalEdgeStyle;rounded=0;orthogonalLoop=1;jettySize=auto;html=1;" edge="1" parent="1" source="9" target="6">
          <mxGeometry relative="1" as="geometry" />
        </mxCell>
        <mxCell id="9" value="Filtro 1" style="whiteSpace=wrap;strokeWidth=2;" parent="1" vertex="1">
          <mxGeometry x="93" y="50" width="67" height="34" as="geometry" />
        </mxCell>
        <mxCell id="13" value="" style="curved=1;startArrow=none;endArrow=block;exitX=0.5;exitY=1;entryX=0.5;entryY=0;exitDx=0;exitDy=0;" parent="1" source="MCOasEj0JGhouQs_hzkm-24" target="3" edge="1">
          <mxGeometry relative="1" as="geometry">
            <Array as="points" />
          </mxGeometry>
        </mxCell>
        <mxCell id="MCOasEj0JGhouQs_hzkm-16" value="usuário existe" style="text;html=1;align=center;verticalAlign=middle;resizable=0;points=[];autosize=1;strokeColor=none;fillColor=none;" vertex="1" parent="1">
          <mxGeometry x="315" y="50" width="100" height="30" as="geometry" />
        </mxCell>
        <mxCell id="MCOasEj0JGhouQs_hzkm-17" value="Sequencia de filtros dentro&amp;nbsp;&lt;div&gt;de uma camada&lt;/div&gt;" style="text;html=1;align=center;verticalAlign=middle;resizable=0;points=[];autosize=1;strokeColor=none;fillColor=none;" vertex="1" parent="1">
          <mxGeometry x="290" y="156" width="170" height="40" as="geometry" />
        </mxCell>
        <mxCell id="MCOasEj0JGhouQs_hzkm-19" value="usuário pode acessar o /livros" style="text;html=1;align=center;verticalAlign=middle;resizable=0;points=[];autosize=1;strokeColor=none;fillColor=none;" vertex="1" parent="1">
          <mxGeometry x="277.5" y="295" width="180" height="30" as="geometry" />
        </mxCell>
        <mxCell id="MCOasEj0JGhouQs_hzkm-23" value="" style="edgeStyle=orthogonalEdgeStyle;rounded=0;orthogonalLoop=1;jettySize=auto;html=1;" edge="1" parent="1" source="6" target="MCOasEj0JGhouQs_hzkm-22">
          <mxGeometry relative="1" as="geometry">
            <mxPoint x="67" y="178" as="sourcePoint" />
            <mxPoint x="275" y="176" as="targetPoint" />
          </mxGeometry>
        </mxCell>
        <mxCell id="MCOasEj0JGhouQs_hzkm-22" value="Block C2" style="whiteSpace=wrap;strokeWidth=2;" vertex="1" parent="1">
          <mxGeometry x="94" y="161" width="68" height="34" as="geometry" />
        </mxCell>
        <mxCell id="MCOasEj0JGhouQs_hzkm-24" value="Block C3" style="whiteSpace=wrap;strokeWidth=2;" vertex="1" parent="1">
          <mxGeometry x="180" y="161" width="68" height="34" as="geometry" />
        </mxCell>
        <mxCell id="MCOasEj0JGhouQs_hzkm-25" value="" style="rounded=0;whiteSpace=wrap;html=1;fillColor=#d5e8d4;strokeColor=#82b366;" vertex="1" parent="1">
          <mxGeometry x="780" y="94" width="350" height="256" as="geometry" />
        </mxCell>
        <mxCell id="MCOasEj0JGhouQs_hzkm-26" value="App" style="text;html=1;align=center;verticalAlign=middle;resizable=0;points=[];autosize=1;strokeColor=none;fillColor=none;" vertex="1" parent="1">
          <mxGeometry x="940" y="94" width="40" height="30" as="geometry" />
        </mxCell>
        <mxCell id="MCOasEj0JGhouQs_hzkm-27" value="" style="rounded=0;whiteSpace=wrap;html=1;fillColor=#fff2cc;strokeColor=#d6b656;" vertex="1" parent="1">
          <mxGeometry x="790" y="124" width="330" height="206" as="geometry" />
        </mxCell>
        <mxCell id="MCOasEj0JGhouQs_hzkm-28" value="Spring Boot" style="text;html=1;align=center;verticalAlign=middle;resizable=0;points=[];autosize=1;strokeColor=none;fillColor=none;" vertex="1" parent="1">
          <mxGeometry x="915" y="131" width="90" height="30" as="geometry" />
        </mxCell>
        <mxCell id="MCOasEj0JGhouQs_hzkm-29" value="" style="rounded=0;whiteSpace=wrap;html=1;" vertex="1" parent="1">
          <mxGeometry x="810" y="170" width="190" height="140" as="geometry" />
        </mxCell>
        <mxCell id="MCOasEj0JGhouQs_hzkm-30" value="Spring Security" style="text;html=1;align=center;verticalAlign=middle;resizable=0;points=[];autosize=1;strokeColor=none;fillColor=none;" vertex="1" parent="1">
          <mxGeometry x="855" y="170" width="100" height="30" as="geometry" />
        </mxCell>
        <mxCell id="MCOasEj0JGhouQs_hzkm-32" value="" style="whiteSpace=wrap;html=1;fillColor=#f8cecc;strokeColor=#b85450;" vertex="1" parent="1">
          <mxGeometry x="830" y="205" width="150" height="95" as="geometry" />
        </mxCell>
        <mxCell id="MCOasEj0JGhouQs_hzkm-33" value="username&lt;div&gt;password&lt;/div&gt;&lt;div&gt;configurações padrões&lt;/div&gt;" style="text;html=1;align=center;verticalAlign=middle;resizable=0;points=[];autosize=1;strokeColor=none;fillColor=none;" vertex="1" parent="1">
          <mxGeometry x="835" y="240" width="140" height="60" as="geometry" />
        </mxCell>
        <mxCell id="MCOasEj0JGhouQs_hzkm-34" value="FilterChain" style="text;html=1;align=center;verticalAlign=middle;whiteSpace=wrap;rounded=0;" vertex="1" parent="1">
          <mxGeometry x="875" y="212" width="60" height="30" as="geometry" />
        </mxCell>
        <mxCell id="MCOasEj0JGhouQs_hzkm-35" value="" style="rounded=0;whiteSpace=wrap;html=1;fillColor=#d5e8d4;strokeColor=#82b366;" vertex="1" parent="1">
          <mxGeometry x="1200" y="94" width="350" height="256" as="geometry" />
        </mxCell>
        <mxCell id="MCOasEj0JGhouQs_hzkm-36" value="App" style="text;html=1;align=center;verticalAlign=middle;resizable=0;points=[];autosize=1;strokeColor=none;fillColor=none;" vertex="1" parent="1">
          <mxGeometry x="1360" y="94" width="40" height="30" as="geometry" />
        </mxCell>
        <mxCell id="MCOasEj0JGhouQs_hzkm-37" value="" style="rounded=0;whiteSpace=wrap;html=1;fillColor=#fff2cc;strokeColor=#d6b656;" vertex="1" parent="1">
          <mxGeometry x="1210" y="124" width="330" height="206" as="geometry" />
        </mxCell>
        <mxCell id="MCOasEj0JGhouQs_hzkm-38" value="Spring Boot" style="text;html=1;align=center;verticalAlign=middle;resizable=0;points=[];autosize=1;strokeColor=none;fillColor=none;" vertex="1" parent="1">
          <mxGeometry x="1335" y="131" width="90" height="30" as="geometry" />
        </mxCell>
        <mxCell id="MCOasEj0JGhouQs_hzkm-39" value="" style="rounded=0;whiteSpace=wrap;html=1;" vertex="1" parent="1">
          <mxGeometry x="1230" y="170" width="270" height="140" as="geometry" />
        </mxCell>
        <mxCell id="MCOasEj0JGhouQs_hzkm-40" value="Spring Security" style="text;html=1;align=center;verticalAlign=middle;resizable=0;points=[];autosize=1;strokeColor=none;fillColor=none;" vertex="1" parent="1">
          <mxGeometry x="1275" y="165" width="100" height="30" as="geometry" />
        </mxCell>
        <mxCell id="MCOasEj0JGhouQs_hzkm-41" value="" style="whiteSpace=wrap;html=1;fillColor=#f8cecc;strokeColor=#b85450;" vertex="1" parent="1">
          <mxGeometry x="1250" y="190" width="230" height="110" as="geometry" />
        </mxCell>
        <mxCell id="MCOasEj0JGhouQs_hzkm-43" value="FilterChain" style="text;html=1;align=center;verticalAlign=middle;whiteSpace=wrap;rounded=0;" vertex="1" parent="1">
          <mxGeometry x="1260" y="190" width="60" height="30" as="geometry" />
        </mxCell>
        <mxCell id="MCOasEj0JGhouQs_hzkm-44" value="FilterChain customizado pelo Bean" style="rounded=0;whiteSpace=wrap;html=1;fillColor=#dae8fc;strokeColor=#6c8ebf;" vertex="1" parent="1">
          <mxGeometry x="1260" y="215" width="210" height="75" as="geometry" />
        </mxCell>
      </root>
    </mxGraphModel>
  </diagram>
</mxfile>
